<svg width="21" height="25" viewBox="0 0 21 25" fill="none" xmlns="http://www.w3.org/2000/svg">
<path d="M12.2988 24.8471C10.6521 24.8471 9.04249 24.3588 7.67337 23.444C6.30425 22.5291 5.23715 21.2289 4.60701 19.7076C3.97687 18.1863 3.812 16.5123 4.13324 14.8973C4.45448 13.2823 5.24741 11.7989 6.41175 10.6345C7.5761 9.47019 9.05956 8.67726 10.6745 8.35602C12.2895 8.03478 13.9635 8.19965 15.4848 8.82979C17.0061 9.45993 18.3064 10.527 19.2212 11.8962C20.136 13.2653 20.6243 14.8749 20.6243 16.5216C20.6311 17.6168 20.4203 18.7024 20.0043 19.7156C19.5883 20.7287 18.9753 21.6492 18.2009 22.4237C17.4265 23.1981 16.506 23.8111 15.4928 24.2271C14.4796 24.6431 13.394 24.8538 12.2988 24.8471ZM12.2988 10.5766C11.1222 10.5761 9.97201 10.9245 8.99355 11.5779C8.0151 12.2312 7.25239 13.16 6.80192 14.2469C6.35145 15.3338 6.23346 16.5298 6.46286 17.6838C6.69227 18.8377 7.25876 19.8977 8.09069 20.7296C8.92262 21.5616 9.9826 22.1281 11.1365 22.3575C12.2905 22.5869 13.4865 22.4689 14.5734 22.0184C15.6603 21.5679 16.5891 20.8052 17.2425 19.8268C17.8958 18.8483 18.2442 17.6981 18.2437 16.5216C18.2516 15.7387 18.1032 14.9621 17.8072 14.2373C17.5112 13.5124 17.0736 12.854 16.52 12.3003C15.9664 11.7467 15.3079 11.3091 14.5831 11.0131C13.8582 10.7172 13.0817 10.5687 12.2988 10.5766Z" fill="#6633FF"/>
<path d="M7.34378 8.32361C7.10139 7.07594 6.04508 2.87109 4.99131 1.7867C3.75894 0.334907 2.09793 -0.274899 0.538967 0.115479C0.39312 0.163454 0.265732 0.255463 0.174344 0.378837C0.0829558 0.502212 0.0320618 0.650883 0.0286698 0.804381C-0.149934 2.8073 0.518555 4.96841 1.68203 6.34876C2.64139 7.48673 4.48867 8.08888 5.73124 8.1348M1.25083 1.67954C2.29949 1.64127 3.29202 2.10819 4.11615 2.99866C4.89556 4.02186 5.33299 5.26452 5.36638 6.55033C4.32027 6.5886 3.32519 6.12168 2.50106 5.23121C1.67693 4.34074 1.29931 3.01652 1.25083 1.67954Z" fill="#6633FF"/>
</svg>
