<svg width="92" height="30" viewBox="0 0 92 30" fill="none" xmlns="http://www.w3.org/2000/svg">
<path d="M12.2988 24.8471C10.6522 24.8471 9.0425 24.3588 7.67338 23.444C6.30426 22.5291 5.23716 21.2289 4.60702 19.7076C3.97688 18.1863 3.81201 16.5123 4.13325 14.8973C4.45449 13.2823 5.24742 11.7989 6.41176 10.6345C7.5761 9.4702 9.05957 8.67727 10.6746 8.35603C12.2895 8.03479 13.9635 8.19966 15.4848 8.8298C17.0061 9.45994 18.3064 10.527 19.2212 11.8962C20.136 13.2653 20.6243 14.8749 20.6243 16.5216C20.6311 17.6168 20.4203 18.7024 20.0043 19.7156C19.5883 20.7287 18.9754 21.6492 18.2009 22.4237C17.4265 23.1981 16.506 23.8111 15.4928 24.2271C14.4797 24.6431 13.394 24.8538 12.2988 24.8471ZM12.2988 10.5766C11.1223 10.5761 9.97201 10.9245 8.99356 11.5779C8.0151 12.2312 7.2524 13.16 6.80193 14.2469C6.35146 15.3338 6.23346 16.5298 6.46287 17.6838C6.69227 18.8377 7.25877 19.8977 8.0907 20.7296C8.92263 21.5616 9.98261 22.1281 11.1366 22.3575C12.2905 22.5869 13.4866 22.4689 14.5734 22.0184C15.6603 21.5679 16.5891 20.8052 17.2425 19.8268C17.8958 18.8483 18.2443 17.6981 18.2437 16.5216C18.2516 15.7387 18.1032 14.9621 17.8072 14.2373C17.5112 13.5125 17.0736 12.854 16.52 12.3004C15.9664 11.7467 15.3079 11.3091 14.5831 11.0131C13.8583 10.7172 13.0817 10.5687 12.2988 10.5766Z" fill="#CAC2E0"/>
<path d="M7.34378 8.32361C7.10139 7.07594 6.04508 2.87109 4.99131 1.7867C3.75894 0.334907 2.09793 -0.274899 0.538967 0.115479C0.39312 0.163454 0.265732 0.255463 0.174344 0.378837C0.0829558 0.502212 0.0320618 0.650883 0.0286698 0.804381C-0.149934 2.8073 0.518555 4.96841 1.68203 6.34876C2.64139 7.48673 4.48867 8.08888 5.73124 8.1348M1.25083 1.67954C2.29949 1.64127 3.29202 2.10819 4.11615 2.99866C4.89556 4.02186 5.33299 5.26452 5.36638 6.55033C4.32027 6.5886 3.32519 6.12168 2.50106 5.23121C1.67693 4.34074 1.29931 3.01652 1.25083 1.67954Z" fill="#CAC2E0"/>
<path d="M26.4493 24.7501C26.277 24.7726 26.1018 24.755 25.9374 24.6987C25.773 24.6424 25.6239 24.5488 25.5016 24.4253C25.3793 24.3018 25.2873 24.1517 25.2326 23.9867C25.1779 23.8218 25.1621 23.6464 25.1863 23.4743V6.22629C25.1745 6.05624 25.1968 5.88554 25.252 5.72427C25.3072 5.563 25.3942 5.41443 25.5078 5.28734C25.635 5.17297 25.7839 5.08534 25.9457 5.02968C26.1074 4.97401 26.2787 4.95144 26.4493 4.9633H33.101C34.2849 4.93035 35.4633 5.136 36.566 5.568C37.4506 5.92117 38.2088 6.53182 38.7424 7.32088C39.2703 8.15977 39.5368 9.13675 39.5078 10.1275C39.5465 11.2558 39.1604 12.3575 38.426 13.2148C37.6566 14.0678 36.6252 14.6405 35.4943 14.8427V14.4497C36.8977 14.6198 37.9965 15.125 38.7909 15.9653C39.5852 16.8056 39.9833 17.9189 39.985 19.3052C39.985 21.0657 39.4143 22.4129 38.2729 23.3468C37.1315 24.2806 35.5182 24.7484 33.4327 24.7501H26.4493ZM27.4316 13.8042H32.7643C34.2237 13.8042 35.3293 13.5048 36.0812 12.9061C36.833 12.3073 37.2123 11.4466 37.2191 10.324C37.2191 9.1656 36.8398 8.29129 36.0812 7.70105C35.3225 7.1108 34.2169 6.81568 32.7643 6.81568H27.4316V13.8042ZM27.4316 22.8977H33.2133C34.7119 22.8977 35.8345 22.5983 36.5813 21.9996C37.328 21.4008 37.7022 20.4934 37.7039 19.2771C37.7039 18.0422 37.3297 17.1305 36.5813 16.542C35.8328 15.9534 34.7102 15.6583 33.2133 15.6566H27.4316V22.8977Z" fill="#CAC2E0"/>
<path d="M49.997 25.0052C48.7045 25.0413 47.4241 24.7471 46.2769 24.1505C45.2528 23.5934 44.4138 22.7491 43.8632 21.7215C43.2667 20.5596 42.9728 19.2661 43.0085 17.9606C42.9779 16.6709 43.2672 15.3937 43.8505 14.2431C44.3808 13.2191 45.1811 12.3598 46.1647 11.7579C47.196 11.1469 48.3775 10.8358 49.576 10.8598C50.4263 10.8442 51.2708 11.0014 52.0586 11.3216C52.7729 11.619 53.4106 12.0744 53.9237 12.6535C54.4569 13.2668 54.8582 13.9834 55.1025 14.7585C55.3863 15.6569 55.5241 16.595 55.5108 17.537C55.521 17.6593 55.5033 17.7823 55.4591 17.8968C55.4149 18.0112 55.3453 18.1142 55.2556 18.1979C55.0445 18.3512 54.7862 18.4253 54.5259 18.4071H44.7486V16.9196H53.9824L53.5334 17.2844C53.5555 16.4071 53.401 15.5342 53.0792 14.7176C52.8162 14.0601 52.3609 13.4972 51.7728 13.1025C51.1282 12.7087 50.3819 12.5135 49.627 12.5412C48.774 12.5177 47.9331 12.7477 47.2108 13.2021C46.5418 13.649 46.0199 14.2837 45.7105 15.0264C45.3561 15.8841 45.1824 16.8056 45.2002 17.7335V17.9019C45.2002 19.625 45.6161 20.9348 46.4479 21.8312C47.2797 22.7276 48.4636 23.1767 49.9996 23.1784C50.6391 23.1771 51.2757 23.0913 51.8928 22.9232C52.547 22.7425 53.168 22.4583 53.7324 22.0812C53.9403 21.9302 54.1898 21.8473 54.4468 21.8439C54.635 21.846 54.8161 21.9157 54.9571 22.0404C55.0835 22.1625 55.172 22.3184 55.2122 22.4895C55.2587 22.6817 55.239 22.884 55.1561 23.0636C55.0549 23.2897 54.883 23.4769 54.6662 23.5968C54.0028 24.0683 53.2619 24.4198 52.477 24.6353C51.6717 24.8736 50.8369 24.9981 49.997 25.0052Z" fill="#CAC2E0"/>
<path d="M59.9325 24.9465C59.776 24.9575 59.6189 24.9358 59.4713 24.8826C59.3237 24.8294 59.1888 24.7461 59.0752 24.6378C58.8663 24.3979 58.7609 24.0851 58.7818 23.7677V12.0641C58.7609 11.7535 58.8615 11.447 59.0624 11.2093C59.17 11.1059 59.2979 11.0262 59.4381 10.9752C59.5783 10.9242 59.7276 10.9032 59.8764 10.9133C60.027 10.9043 60.1779 10.9259 60.32 10.9767C60.4621 11.0276 60.5924 11.1067 60.703 11.2093C60.8054 11.3255 60.8834 11.4609 60.9325 11.6078C60.9816 11.7546 61.0007 11.9097 60.9888 12.0641V14.3374H60.7082C60.9572 13.3104 61.5642 12.4057 62.4202 11.7859C63.3401 11.1639 64.4251 10.8315 65.5356 10.8317C65.7755 10.8022 66.0174 10.8681 66.2092 11.0154C66.3025 11.1088 66.3756 11.2205 66.4238 11.3434C66.4721 11.4663 66.4946 11.5978 66.4898 11.7298C66.5069 11.866 66.4958 12.0042 66.4572 12.1359C66.4185 12.2676 66.3532 12.3899 66.2653 12.4953C66.0553 12.7028 65.7745 12.8231 65.4794 12.8321L65.0304 12.8882C63.7563 13.0005 62.7783 13.4078 62.0962 14.1104C61.4141 14.8129 61.0739 15.7714 61.0756 16.9859V23.7677C61.0955 24.0854 60.9891 24.3982 60.7796 24.6378C60.6673 24.7449 60.5341 24.8276 60.3883 24.8807C60.2425 24.9338 60.0874 24.9562 59.9325 24.9465Z" fill="#CAC2E0"/>
<path d="M69.9802 24.9465C69.8237 24.9575 69.6666 24.9358 69.519 24.8826C69.3714 24.8294 69.2365 24.7461 69.1229 24.6378C68.9141 24.3979 68.8086 24.0851 68.8295 23.7677V12.0641C68.8072 11.7533 68.908 11.4463 69.1102 11.2093C69.2171 11.1066 69.3442 11.0272 69.4835 10.9763C69.6227 10.9253 69.771 10.9039 69.919 10.9133C70.0696 10.9043 70.2206 10.9259 70.3626 10.9767C70.5047 11.0276 70.635 11.1067 70.7457 11.2093C70.8498 11.3246 70.9297 11.4598 70.9805 11.6066C71.0314 11.7534 71.0522 11.909 71.0417 12.0641V14.3374H70.761C71.01 13.3104 71.617 12.4057 72.473 11.7859C73.3929 11.1639 74.478 10.8315 75.5884 10.8317C75.8283 10.8022 76.0703 10.8681 76.262 11.0154C76.3581 11.1088 76.4336 11.2213 76.4837 11.3457C76.5338 11.47 76.5574 11.6035 76.5529 11.7375C76.57 11.8736 76.5588 12.0119 76.5202 12.1435C76.4816 12.2752 76.4163 12.3976 76.3283 12.5029C76.113 12.7063 75.8285 12.8203 75.5323 12.8219L75.0832 12.878C73.8092 12.9903 72.8311 13.3976 72.149 14.1001C71.4669 14.8027 71.1267 15.7612 71.1284 16.9757V23.7677C71.1484 24.0854 71.042 24.3982 70.8324 24.6378C70.7196 24.7455 70.5855 24.8286 70.4388 24.8818C70.2921 24.9349 70.1359 24.957 69.9802 24.9465Z" fill="#CAC2E0"/>
<path d="M82.7504 29.9985C82.5056 30.0113 82.265 29.9311 82.0768 29.774C81.9045 29.6187 81.7985 29.4031 81.7809 29.1718C81.7569 28.9099 81.8009 28.6463 81.9084 28.4064L83.845 24.0688V25.0307L78.4563 12.5029C78.35 12.2627 78.3095 11.9985 78.3389 11.7375C78.3692 11.5044 78.4902 11.2926 78.6757 11.1481C78.9047 10.9864 79.1817 10.9073 79.4616 10.9236C79.7108 10.9094 79.9576 10.9785 80.1632 11.12C80.3705 11.3116 80.5252 11.5532 80.6123 11.8217L85.205 23.1044H84.4395L89.0985 11.8217C89.1999 11.5534 89.3634 11.3129 89.5757 11.12C89.7906 10.9759 90.0471 10.9068 90.3054 10.9236C90.5545 10.9072 90.8004 10.9877 90.9917 11.1481C91.1515 11.3004 91.2512 11.5051 91.2724 11.7247C91.2955 11.9863 91.2526 12.2496 91.1474 12.4902L83.9624 29.1055C83.8599 29.3771 83.6905 29.6184 83.4699 29.8071C83.2558 29.9442 83.0043 30.0111 82.7504 29.9985Z" fill="#CAC2E0"/>
</svg>
