<svg width="98" height="33" viewBox="0 0 98 33" fill="none" xmlns="http://www.w3.org/2000/svg">
<path d="M13.2044 26.6767C11.4365 26.6767 9.70835 26.1525 8.23841 25.1703C6.76847 24.1881 5.62279 22.7921 4.94625 21.1588C4.26971 19.5255 4.0927 17.7282 4.43759 15.9943C4.78249 14.2604 5.63381 12.6677 6.88389 11.4176C8.13397 10.1675 9.72667 9.31621 11.4606 8.97132C13.1945 8.62642 14.9917 8.80343 16.6251 9.47997C18.2584 10.1565 19.6544 11.3022 20.6366 12.7721C21.6187 14.2421 22.143 15.9703 22.143 17.7381C22.1503 18.914 21.924 20.0796 21.4774 21.1674C21.0308 22.2551 20.3726 23.2434 19.5412 24.0749C18.7097 24.9064 17.7214 25.5645 16.6336 26.0111C15.5459 26.4577 14.3803 26.684 13.2044 26.6767ZM13.2044 11.3554C11.9413 11.3549 10.7063 11.729 9.6558 12.4304C8.6053 13.1318 7.78643 14.1291 7.30279 15.296C6.81915 16.4629 6.69246 17.747 6.93876 18.9859C7.18506 20.2249 7.79327 21.3629 8.68646 22.2561C9.57965 23.1493 10.7177 23.7575 11.9566 24.0038C13.1955 24.2501 14.4796 24.1234 15.6466 23.6398C16.8135 23.1561 17.8107 22.3373 18.5121 21.2867C19.2136 20.2362 19.5877 19.0013 19.5871 17.7381C19.5956 16.8976 19.4362 16.0638 19.1184 15.2856C18.8007 14.5074 18.3308 13.8005 17.7365 13.2061C17.1421 12.6117 16.4351 12.1419 15.6569 11.8241C14.8787 11.5063 14.0449 11.347 13.2044 11.3554Z" fill="white"/>
<path d="M7.88456 8.93654C7.62432 7.59699 6.49022 3.0825 5.35886 1.91827C4.03574 0.359568 2.25241 -0.295141 0.578655 0.123982C0.422068 0.17549 0.2853 0.274275 0.187182 0.406734C0.0890644 0.539193 0.0344227 0.698812 0.030781 0.863613C-0.160975 3.01402 0.55674 5.33427 1.80589 6.81627C2.8359 8.03803 4.8192 8.68452 6.15328 8.73383M1.34294 1.80322C2.46882 1.76213 3.53444 2.26343 4.41925 3.21947C5.25606 4.31802 5.7257 5.65218 5.76155 7.03268C4.6384 7.07377 3.57005 6.57246 2.68523 5.61642C1.80042 4.66038 1.39499 3.23865 1.34294 1.80322Z" fill="white"/>
<path d="M28.397 26.5726C28.212 26.5968 28.0239 26.5779 27.8474 26.5174C27.6709 26.4569 27.5107 26.3564 27.3795 26.2238C27.2482 26.0913 27.1494 25.9301 27.0906 25.753C27.0319 25.5759 27.0149 25.3876 27.041 25.2029V6.68473C27.0283 6.50216 27.0522 6.31889 27.1115 6.14575C27.1708 5.9726 27.2642 5.81309 27.3862 5.67664C27.5227 5.55385 27.6826 5.45977 27.8562 5.4C28.0299 5.34024 28.2138 5.316 28.397 5.32874H35.5385C36.8096 5.29336 38.0747 5.51416 39.2586 5.97797C40.2084 6.35714 41.0224 7.01276 41.5953 7.85992C42.1621 8.76059 42.4481 9.80951 42.4171 10.8732C42.4586 12.0846 42.0441 13.2674 41.2556 14.1879C40.4295 15.1037 39.3222 15.7186 38.1081 15.9356V15.5137C39.6147 15.6964 40.7945 16.2387 41.6473 17.1409C42.5002 18.0431 42.9275 19.2384 42.9294 20.7268C42.9294 22.6169 42.3166 24.0633 41.0912 25.0659C39.8658 26.0685 38.1336 26.5707 35.8946 26.5726H28.397ZM29.4516 14.8207H35.1769C36.7439 14.8207 37.9309 14.4992 38.7381 13.8564C39.5453 13.2136 39.9526 12.2895 39.9599 11.0842C39.9599 9.84049 39.5526 8.9018 38.7381 8.26809C37.9236 7.63438 36.7365 7.31753 35.1769 7.31753H29.4516V14.8207ZM29.4516 24.5838H35.6591C37.268 24.5838 38.4733 24.2624 39.275 23.6195C40.0768 22.9767 40.4785 22.0024 40.4804 20.6966C40.4804 19.3708 40.0786 18.3919 39.275 17.76C38.4715 17.1281 37.2662 16.8113 35.6591 16.8094H29.4516V24.5838Z" fill="white"/>
<path d="M53.6786 26.8467C52.2909 26.8853 50.9163 26.5695 49.6846 25.929C48.5851 25.3308 47.6844 24.4244 47.0932 23.3211C46.4528 22.0737 46.1371 20.6849 46.1755 19.2833C46.1427 17.8986 46.4533 16.5274 47.0795 15.292C47.6489 14.1927 48.5081 13.27 49.5641 12.6238C50.6714 11.9678 51.9398 11.6339 53.2266 11.6596C54.1395 11.6429 55.0463 11.8116 55.8921 12.1554C56.659 12.4747 57.3436 12.9636 57.8945 13.5854C58.467 14.2439 58.8978 15.0132 59.1601 15.8453C59.4648 16.8099 59.6128 17.8171 59.5984 18.8285C59.6094 18.9598 59.5904 19.0919 59.543 19.2147C59.4955 19.3376 59.4208 19.4482 59.3245 19.538C59.0978 19.7027 58.8205 19.7822 58.541 19.7626H48.0438V18.1656H57.9575L57.4754 18.5573C57.4992 17.6153 57.3333 16.6782 56.9878 15.8015C56.7054 15.0955 56.2166 14.4912 55.5852 14.0675C54.8932 13.6447 54.0919 13.4351 53.2814 13.4648C52.3656 13.4396 51.4628 13.6865 50.6872 14.1743C49.9691 14.6542 49.4087 15.3356 49.0765 16.133C48.696 17.0539 48.5095 18.0433 48.5286 19.0395V19.2203C48.5286 21.0702 48.9751 22.4764 49.8682 23.4389C50.7612 24.4013 52.0323 24.8834 53.6814 24.8853C54.368 24.8839 55.0515 24.7918 55.714 24.6113C56.4164 24.4173 57.0832 24.1122 57.6891 23.7073C57.9123 23.5452 58.1802 23.4561 58.4561 23.4526C58.6581 23.4548 58.8526 23.5297 59.004 23.6635C59.1396 23.7946 59.2347 23.962 59.2779 24.1456C59.3278 24.352 59.3066 24.5692 59.2176 24.762C59.109 25.0048 58.9244 25.2057 58.6917 25.3345C57.9794 25.8407 57.1839 26.2181 56.3413 26.4495C55.4766 26.7053 54.5804 26.839 53.6786 26.8467Z" fill="white"/>
<path d="M64.3458 26.7836C64.1777 26.7954 64.0091 26.772 63.8506 26.7149C63.6921 26.6579 63.5473 26.5683 63.4253 26.4521C63.2011 26.1945 63.0878 25.8587 63.1103 25.518V12.9525C63.0879 12.6191 63.1959 12.29 63.4116 12.0348C63.5271 11.9238 63.6644 11.8382 63.8149 11.7834C63.9654 11.7287 64.1257 11.7061 64.2855 11.717C64.4472 11.7073 64.6092 11.7305 64.7618 11.7851C64.9143 11.8397 65.0542 11.9246 65.1731 12.0348C65.2829 12.1595 65.3667 12.3049 65.4194 12.4626C65.4721 12.6202 65.4926 12.7868 65.4799 12.9525V15.3933H65.1785C65.4459 14.2906 66.0976 13.3193 67.0166 12.6539C68.0042 11.986 69.1692 11.6292 70.3614 11.6294C70.619 11.5977 70.8788 11.6685 71.0846 11.8266C71.1848 11.9269 71.2633 12.0468 71.3151 12.1787C71.3669 12.3107 71.3911 12.4519 71.3859 12.5936C71.4043 12.7398 71.3924 12.8882 71.3509 13.0296C71.3094 13.171 71.2393 13.3023 71.1449 13.4154C70.9194 13.6382 70.618 13.7674 70.3012 13.777L69.819 13.8373C68.4512 13.9578 67.4011 14.3952 66.6687 15.1495C65.9364 15.9037 65.5712 16.9328 65.573 18.2367V25.518C65.5944 25.8591 65.4802 26.1948 65.2552 26.4521C65.1347 26.5671 64.9917 26.6559 64.8351 26.7129C64.6786 26.7699 64.512 26.794 64.3458 26.7836Z" fill="white"/>
<path d="M75.1334 26.7836C74.9654 26.7954 74.7967 26.772 74.6382 26.7149C74.4797 26.6579 74.3349 26.5683 74.213 26.4521C73.9887 26.1945 73.8755 25.8587 73.898 25.518V12.9525C73.874 12.6189 73.9823 12.2893 74.1993 12.0348C74.3141 11.9245 74.4506 11.8393 74.6001 11.7846C74.7496 11.7299 74.9088 11.7069 75.0677 11.717C75.2294 11.7073 75.3914 11.7305 75.544 11.7851C75.6965 11.8397 75.8364 11.9246 75.9552 12.0348C76.067 12.1586 76.1528 12.3037 76.2074 12.4613C76.262 12.619 76.2843 12.786 76.273 12.9525V15.3933H75.9716C76.239 14.2906 76.8907 13.3193 77.8098 12.6539C78.7974 11.986 79.9623 11.6292 81.1545 11.6294C81.4122 11.5977 81.6719 11.6685 81.8777 11.8266C81.9809 11.9269 82.062 12.0477 82.1158 12.1812C82.1696 12.3147 82.1949 12.458 82.19 12.6018C82.2084 12.748 82.1964 12.8964 82.155 13.0378C82.1135 13.1792 82.0434 13.3105 81.949 13.4236C81.7178 13.642 81.4123 13.7644 81.0943 13.7661L80.6121 13.8263C79.2443 13.9469 78.1942 14.3843 77.4619 15.1385C76.7295 15.8927 76.3643 16.9218 76.3661 18.2258V25.518C76.3875 25.8591 76.2733 26.1948 76.0484 26.4521C75.9272 26.5678 75.7832 26.657 75.6257 26.714C75.4682 26.7711 75.3006 26.7948 75.1334 26.7836Z" fill="white"/>
<path d="M88.844 32.2075C88.5811 32.2212 88.3228 32.1351 88.1208 31.9665C87.9358 31.7998 87.822 31.5683 87.803 31.32C87.7773 31.0388 87.8245 30.7558 87.94 30.4982L90.0191 25.8412V26.874L84.2336 13.4237C84.1195 13.1657 84.076 12.8821 84.1076 12.6018C84.1401 12.3515 84.2701 12.1242 84.4692 11.9691C84.715 11.7955 85.0125 11.7105 85.3129 11.728C85.5805 11.7128 85.8455 11.787 86.0662 11.9389C86.2888 12.1446 86.4548 12.404 86.5484 12.6922L91.4792 24.8057H90.6574L95.6595 12.6922C95.7683 12.4042 95.9439 12.146 96.1718 11.9389C96.4025 11.7842 96.678 11.71 96.9552 11.728C97.2227 11.7105 97.4867 11.7968 97.6921 11.9691C97.8637 12.1325 97.9707 12.3523 97.9935 12.5881C98.0183 12.869 97.9722 13.1516 97.8592 13.41L90.1452 31.2488C90.0351 31.5403 89.8533 31.7995 89.6165 32.0021C89.3866 32.1492 89.1166 32.2211 88.844 32.2075Z" fill="white"/>
</svg>
