<svg width="21" height="25" viewBox="0 0 21 25" fill="none" xmlns="http://www.w3.org/2000/svg">
<path d="M12.2961 24.8498C10.6499 24.8498 9.04055 24.3615 7.67172 23.4466C6.30289 22.5316 5.23602 21.2312 4.60602 19.7098C3.97602 18.1883 3.81118 16.5141 4.13235 14.899C4.45353 13.2838 5.24628 11.8002 6.41037 10.6357C7.57447 9.47122 9.05761 8.6782 10.6723 8.35692C12.2869 8.03565 13.9605 8.20054 15.4815 8.83075C17.0024 9.46095 18.3024 10.5282 19.217 11.8975C20.1317 13.2667 20.6198 14.8766 20.6198 16.5234C20.6266 17.6187 20.4159 18.7045 20 19.7178C19.5841 20.731 18.9713 21.6516 18.197 22.4262C17.4227 23.2007 16.5024 23.8138 15.4895 24.2298C14.4765 24.6458 13.3911 24.8566 12.2961 24.8498ZM12.2961 10.5777C11.1199 10.5772 9.96986 10.9257 8.99162 11.5791C8.01337 12.2325 7.25083 13.1615 6.80046 14.2485C6.35009 15.3355 6.23212 16.5317 6.46147 17.6857C6.69083 18.8398 7.2572 19.8999 8.08895 20.7319C8.9207 21.564 9.98046 22.1305 11.1342 22.3599C12.2878 22.5894 13.4836 22.4714 14.5703 22.0208C15.6569 21.5703 16.5856 20.8075 17.2388 19.829C17.8919 18.8504 18.2403 17.7 18.2398 16.5234C18.2477 15.7404 18.0993 14.9637 17.8034 14.2388C17.5074 13.5139 17.0699 12.8554 16.5164 12.3017C15.9629 11.748 15.3046 11.3104 14.5799 11.0143C13.8553 10.7183 13.0788 10.5699 12.2961 10.5777Z" fill="white"/>
<path d="M7.34221 8.32455C7.09987 7.07673 6.04378 2.87141 4.99024 1.7869C3.75814 0.334944 2.09748 -0.27493 0.538851 0.115492C0.393036 0.163472 0.265675 0.255492 0.174307 0.37888C0.0829379 0.502268 0.0320549 0.650956 0.0286637 0.804471C-0.149902 2.80761 0.518444 4.96897 1.68167 6.34948C2.64083 7.48757 4.48771 8.08979 5.73001 8.13572M1.25056 1.67973C2.299 1.64145 3.29131 2.10843 4.11527 2.999C4.89451 4.02232 5.33185 5.26511 5.36523 6.55107C4.31934 6.58934 3.32448 6.12237 2.50052 5.2318C1.67657 4.34123 1.29903 3.01686 1.25056 1.67973Z" fill="white"/>
</svg>
