<svg width="224" height="210" viewBox="0 0 224 210" fill="none" xmlns="http://www.w3.org/2000/svg">
<g filter="url(#filter0_d_10_897)">
<rect x="8" y="8" width="156.227" height="163.493" rx="8" fill="#FFFEFE"/>
<rect x="8.5" y="8.5" width="155.227" height="162.493" rx="7.5" stroke="#D9D9D9"/>
</g>
<rect x="12.5415" y="76.1223" width="70.8472" height="15.441" rx="7.72052" fill="#D9D9D9"/>
<rect x="88.8384" y="31.6157" width="70.8472" height="15.441" rx="7.72052" fill="#B2EAE0"/>
<rect x="12.5415" y="31.6157" width="70.8472" height="15.441" rx="7.72052" fill="#EAB2C0"/>
<rect x="12.5415" y="53.4149" width="70.8472" height="15.441" rx="7.72052" fill="#8CD0F7"/>
<rect x="88.8384" y="53.4149" width="70.8472" height="15.441" rx="7.72052" fill="#8CD0F7"/>
<g filter="url(#filter1_d_10_897)">
<rect x="50.69" y="87.9301" width="165.31" height="113.537" rx="8" fill="white"/>
</g>
<rect x="58.4563" y="98.4214" width="147.052" height="23.524" rx="7.5" fill="#FFFEFE" stroke="#D9D9D9"/>
<rect x="58.8646" y="129.712" width="19.9825" height="19.9825" rx="5" fill="#EAB2C0"/>
<rect x="83.3886" y="129.712" width="19.9825" height="19.9825" rx="5" fill="#EAB2E1"/>
<rect x="108.821" y="129.712" width="19.9825" height="19.9825" rx="5" fill="#FFD79C"/>
<rect x="135.162" y="129.712" width="19.9825" height="19.9825" rx="5" fill="#CCA3F4"/>
<rect x="161.502" y="129.712" width="19.9825" height="19.9825" rx="5" fill="#8CD0F7"/>
<rect x="186.026" y="129.712" width="19.9825" height="19.9825" rx="5" fill="#B2EAE0"/>
<rect x="58.8646" y="159.686" width="148.052" height="28.1572" rx="8" fill="#6633FF"/>
<circle cx="78.393" cy="32.0699" r="6.81223" fill="#F26E6E"/>
<circle cx="155.598" cy="31.1616" r="6.81223" fill="#F26E6E"/>
<circle cx="79.3013" cy="55.6856" r="6.81223" fill="#F26E6E"/>
<circle cx="156.507" cy="54.7773" r="6.81223" fill="#F26E6E"/>
<defs>
<filter id="filter0_d_10_897" x="0" y="0" width="172.227" height="179.493" filterUnits="userSpaceOnUse" color-interpolation-filters="sRGB">
<feFlood flood-opacity="0" result="BackgroundImageFix"/>
<feColorMatrix in="SourceAlpha" type="matrix" values="0 0 0 0 0 0 0 0 0 0 0 0 0 0 0 0 0 0 127 0" result="hardAlpha"/>
<feOffset/>
<feGaussianBlur stdDeviation="4"/>
<feComposite in2="hardAlpha" operator="out"/>
<feColorMatrix type="matrix" values="0 0 0 0 0 0 0 0 0 0 0 0 0 0 0 0 0 0 0.25 0"/>
<feBlend mode="normal" in2="BackgroundImageFix" result="effect1_dropShadow_10_897"/>
<feBlend mode="normal" in="SourceGraphic" in2="effect1_dropShadow_10_897" result="shape"/>
</filter>
<filter id="filter1_d_10_897" x="42.69" y="79.9301" width="181.31" height="129.537" filterUnits="userSpaceOnUse" color-interpolation-filters="sRGB">
<feFlood flood-opacity="0" result="BackgroundImageFix"/>
<feColorMatrix in="SourceAlpha" type="matrix" values="0 0 0 0 0 0 0 0 0 0 0 0 0 0 0 0 0 0 127 0" result="hardAlpha"/>
<feOffset/>
<feGaussianBlur stdDeviation="4"/>
<feComposite in2="hardAlpha" operator="out"/>
<feColorMatrix type="matrix" values="0 0 0 0 0 0 0 0 0 0 0 0 0 0 0 0 0 0 0.25 0"/>
<feBlend mode="normal" in2="BackgroundImageFix" result="effect1_dropShadow_10_897"/>
<feBlend mode="normal" in="SourceGraphic" in2="effect1_dropShadow_10_897" result="shape"/>
</filter>
</defs>
</svg>
