<svg width="311" height="343" viewBox="0 0 311 343" fill="none" xmlns="http://www.w3.org/2000/svg">
<g filter="url(#filter0_d_10_902)">
<path d="M164.498 58.627C164.498 54.2087 168.08 50.627 172.498 50.627H298.685C303.103 50.627 306.685 54.2087 306.685 58.627V327C306.685 331.418 303.103 335 298.685 335H172.498C168.08 335 164.498 331.418 164.498 327V58.627Z" fill="#F4F3F8"/>
<path d="M164.998 58.627C164.998 54.4848 168.356 51.127 172.498 51.127H298.685C302.827 51.127 306.185 54.4848 306.185 58.627V327C306.185 331.142 302.827 334.5 298.685 334.5H172.498C168.356 334.5 164.998 331.142 164.998 327V58.627Z" stroke="#D9D9D9"/>
</g>
<g filter="url(#filter1_d_10_902)">
<mask id="path-3-inside-1_10_902" fill="white">
<path d="M169.884 195.428C169.884 191.009 173.466 187.428 177.884 187.428H295.453C299.872 187.428 303.453 191.009 303.453 195.428V270.37H169.884V195.428Z"/>
</mask>
<path d="M169.884 195.428C169.884 191.009 173.466 187.428 177.884 187.428H295.453C299.872 187.428 303.453 191.009 303.453 195.428V270.37H169.884V195.428Z" fill="white"/>
<path d="M169.884 187.428H303.453H169.884ZM303.453 274.37H169.884V266.37H303.453V274.37ZM169.884 270.37V187.428V270.37ZM303.453 187.428V270.37V187.428Z" fill="#E6AC55" mask="url(#path-3-inside-1_10_902)"/>
</g>
<line x1="169.884" y1="91.6367" x2="300.222" y2="91.6367" stroke="#D9D9D9" stroke-opacity="0.5" stroke-width="2"/>
<g filter="url(#filter2_d_10_902)">
<path d="M4 8C4 3.58173 7.58172 0 12 0H138.186C142.605 0 146.186 3.58172 146.186 8V276.373C146.186 280.791 142.605 284.373 138.186 284.373H12C7.58172 284.373 4 280.791 4 276.373V8Z" fill="#F4F3F8"/>
<path d="M4.5 8C4.5 3.85787 7.85786 0.5 12 0.5H138.186C142.329 0.5 145.686 3.85786 145.686 8V276.373C145.686 280.515 142.329 283.873 138.186 283.873H12C7.85786 283.873 4.5 280.515 4.5 276.373V8Z" stroke="#D9D9D9"/>
</g>
<rect x="11.5402" y="226.206" width="129.26" height="36.6238" rx="8" fill="#D9D9D9"/>
<line x1="11.5402" y1="39.9325" x2="140.801" y2="39.9325" stroke="#D9D9D9" stroke-opacity="0.5" stroke-width="2"/>
<g filter="url(#filter3_d_10_902)">
<mask id="path-10-inside-2_10_902" fill="white">
<path d="M11.5402 142.646C11.5402 138.228 15.1219 134.646 19.5402 134.646H132.801C137.219 134.646 140.801 138.228 140.801 142.646V208.971H11.5402V142.646Z"/>
</mask>
<path d="M11.5402 142.646C11.5402 138.228 15.1219 134.646 19.5402 134.646H132.801C137.219 134.646 140.801 138.228 140.801 142.646V208.971H11.5402V142.646Z" fill="white"/>
<path d="M11.5402 134.646H140.801H11.5402ZM140.801 212.971H11.5402V204.971H140.801V212.971ZM11.5402 208.971V134.646V208.971ZM140.801 134.646V208.971V134.646Z" fill="#CAC2E0" mask="url(#path-10-inside-2_10_902)"/>
</g>
<g filter="url(#filter4_d_10_902)">
<mask id="path-12-inside-3_10_902" fill="white">
<path d="M11.5402 58.627C11.5402 54.2087 15.1219 50.627 19.5402 50.627H132.801C137.219 50.627 140.801 54.2087 140.801 58.627V124.952H11.5402V58.627Z"/>
</mask>
<path d="M11.5402 58.627C11.5402 54.2087 15.1219 50.627 19.5402 50.627H132.801C137.219 50.627 140.801 54.2087 140.801 58.627V124.952H11.5402V58.627Z" fill="white"/>
<path d="M11.5402 50.627H140.801H11.5402ZM140.801 128.952H11.5402V120.952H140.801V128.952ZM11.5402 124.952V50.627V124.952ZM140.801 50.627V124.952V50.627Z" fill="#45A866" mask="url(#path-12-inside-3_10_902)"/>
</g>
<g filter="url(#filter5_d_10_902)">
<mask id="path-14-inside-4_10_902" fill="white">
<path d="M169.884 110.331C169.884 105.913 173.466 102.331 177.884 102.331H295.453C299.872 102.331 303.453 105.913 303.453 110.331V176.656H169.884V110.331Z"/>
</mask>
<path d="M169.884 110.331C169.884 105.913 173.466 102.331 177.884 102.331H295.453C299.872 102.331 303.453 105.913 303.453 110.331V176.656H169.884V110.331Z" fill="white"/>
<path d="M169.884 102.331H303.453H169.884ZM303.453 180.656H169.884V172.656H303.453V180.656ZM169.884 176.656V102.331V176.656ZM303.453 102.331V176.656V102.331Z" fill="#E6AC55" mask="url(#path-14-inside-4_10_902)"/>
</g>
<g filter="url(#filter6_d_10_902)">
<path d="M169.884 284.833C169.884 280.414 173.466 276.833 177.884 276.833H295.453C299.872 276.833 303.453 280.414 303.453 284.833V331.768H169.884V284.833Z" fill="white"/>
</g>
<rect x="178.502" y="226.206" width="66.7846" height="14.0032" rx="7.00161" fill="#B2EAE0"/>
<rect x="15.8489" y="86.1736" width="67.8617" height="14.0032" rx="7.00161" fill="#EAB2E1"/>
<rect x="175.27" y="138.955" width="67.8617" height="15.0804" rx="7.54019" fill="#EAB2C0"/>
<rect x="178.502" y="243.441" width="66.7846" height="15.0804" rx="7.54019" fill="#8CD0F7"/>
<rect x="15.8489" y="151.881" width="113.103" height="14.0032" rx="7.00161" fill="#BCB7B7"/>
<rect x="175.27" y="118.489" width="114.18" height="14.0032" rx="7.00161" fill="#BCB7B7"/>
<rect x="178.502" y="202.508" width="113.103" height="14.0032" rx="7.00161" fill="#BCB7B7"/>
<path d="M175.27 297.299C175.27 293.73 178.164 290.836 181.733 290.836H282.987C286.557 290.836 289.45 293.73 289.45 297.299C289.45 300.868 286.557 303.762 282.987 303.762H181.733C178.164 303.762 175.27 300.868 175.27 297.299Z" fill="#BCB7B7"/>
<rect x="13.6945" y="11.8489" width="113.103" height="17.2347" rx="8.61736" fill="#BCB7B7"/>
<rect x="169.884" y="62.4758" width="113.103" height="17.2347" rx="8.61736" fill="#BCB7B7"/>
<rect x="15.8489" y="63.5531" width="113.103" height="14.0032" rx="7.00161" fill="#BCB7B7"/>
<defs>
<filter id="filter0_d_10_902" x="160.498" y="50.627" width="150.186" height="292.373" filterUnits="userSpaceOnUse" color-interpolation-filters="sRGB">
<feFlood flood-opacity="0" result="BackgroundImageFix"/>
<feColorMatrix in="SourceAlpha" type="matrix" values="0 0 0 0 0 0 0 0 0 0 0 0 0 0 0 0 0 0 127 0" result="hardAlpha"/>
<feOffset dy="4"/>
<feGaussianBlur stdDeviation="2"/>
<feComposite in2="hardAlpha" operator="out"/>
<feColorMatrix type="matrix" values="0 0 0 0 0 0 0 0 0 0 0 0 0 0 0 0 0 0 0.25 0"/>
<feBlend mode="normal" in2="BackgroundImageFix" result="effect1_dropShadow_10_902"/>
<feBlend mode="normal" in="SourceGraphic" in2="effect1_dropShadow_10_902" result="shape"/>
</filter>
<filter id="filter1_d_10_902" x="165.884" y="183.428" width="141.569" height="90.9421" filterUnits="userSpaceOnUse" color-interpolation-filters="sRGB">
<feFlood flood-opacity="0" result="BackgroundImageFix"/>
<feColorMatrix in="SourceAlpha" type="matrix" values="0 0 0 0 0 0 0 0 0 0 0 0 0 0 0 0 0 0 127 0" result="hardAlpha"/>
<feOffset/>
<feGaussianBlur stdDeviation="2"/>
<feComposite in2="hardAlpha" operator="out"/>
<feColorMatrix type="matrix" values="0 0 0 0 0 0 0 0 0 0 0 0 0 0 0 0 0 0 0.25 0"/>
<feBlend mode="normal" in2="BackgroundImageFix" result="effect1_dropShadow_10_902"/>
<feBlend mode="normal" in="SourceGraphic" in2="effect1_dropShadow_10_902" result="shape"/>
</filter>
<filter id="filter2_d_10_902" x="0" y="0" width="150.186" height="292.373" filterUnits="userSpaceOnUse" color-interpolation-filters="sRGB">
<feFlood flood-opacity="0" result="BackgroundImageFix"/>
<feColorMatrix in="SourceAlpha" type="matrix" values="0 0 0 0 0 0 0 0 0 0 0 0 0 0 0 0 0 0 127 0" result="hardAlpha"/>
<feOffset dy="4"/>
<feGaussianBlur stdDeviation="2"/>
<feComposite in2="hardAlpha" operator="out"/>
<feColorMatrix type="matrix" values="0 0 0 0 0 0 0 0 0 0 0 0 0 0 0 0 0 0 0.25 0"/>
<feBlend mode="normal" in2="BackgroundImageFix" result="effect1_dropShadow_10_902"/>
<feBlend mode="normal" in="SourceGraphic" in2="effect1_dropShadow_10_902" result="shape"/>
</filter>
<filter id="filter3_d_10_902" x="7.54019" y="130.646" width="137.26" height="82.3247" filterUnits="userSpaceOnUse" color-interpolation-filters="sRGB">
<feFlood flood-opacity="0" result="BackgroundImageFix"/>
<feColorMatrix in="SourceAlpha" type="matrix" values="0 0 0 0 0 0 0 0 0 0 0 0 0 0 0 0 0 0 127 0" result="hardAlpha"/>
<feOffset/>
<feGaussianBlur stdDeviation="2"/>
<feComposite in2="hardAlpha" operator="out"/>
<feColorMatrix type="matrix" values="0 0 0 0 0 0 0 0 0 0 0 0 0 0 0 0 0 0 0.25 0"/>
<feBlend mode="normal" in2="BackgroundImageFix" result="effect1_dropShadow_10_902"/>
<feBlend mode="normal" in="SourceGraphic" in2="effect1_dropShadow_10_902" result="shape"/>
</filter>
<filter id="filter4_d_10_902" x="7.54019" y="46.627" width="137.26" height="82.3247" filterUnits="userSpaceOnUse" color-interpolation-filters="sRGB">
<feFlood flood-opacity="0" result="BackgroundImageFix"/>
<feColorMatrix in="SourceAlpha" type="matrix" values="0 0 0 0 0 0 0 0 0 0 0 0 0 0 0 0 0 0 127 0" result="hardAlpha"/>
<feOffset/>
<feGaussianBlur stdDeviation="2"/>
<feComposite in2="hardAlpha" operator="out"/>
<feColorMatrix type="matrix" values="0 0 0 0 0 0 0 0 0 0 0 0 0 0 0 0 0 0 0.25 0"/>
<feBlend mode="normal" in2="BackgroundImageFix" result="effect1_dropShadow_10_902"/>
<feBlend mode="normal" in="SourceGraphic" in2="effect1_dropShadow_10_902" result="shape"/>
</filter>
<filter id="filter5_d_10_902" x="165.884" y="98.3312" width="141.569" height="82.3247" filterUnits="userSpaceOnUse" color-interpolation-filters="sRGB">
<feFlood flood-opacity="0" result="BackgroundImageFix"/>
<feColorMatrix in="SourceAlpha" type="matrix" values="0 0 0 0 0 0 0 0 0 0 0 0 0 0 0 0 0 0 127 0" result="hardAlpha"/>
<feOffset/>
<feGaussianBlur stdDeviation="2"/>
<feComposite in2="hardAlpha" operator="out"/>
<feColorMatrix type="matrix" values="0 0 0 0 0 0 0 0 0 0 0 0 0 0 0 0 0 0 0.25 0"/>
<feBlend mode="normal" in2="BackgroundImageFix" result="effect1_dropShadow_10_902"/>
<feBlend mode="normal" in="SourceGraphic" in2="effect1_dropShadow_10_902" result="shape"/>
</filter>
<filter id="filter6_d_10_902" x="165.884" y="272.833" width="141.569" height="62.9357" filterUnits="userSpaceOnUse" color-interpolation-filters="sRGB">
<feFlood flood-opacity="0" result="BackgroundImageFix"/>
<feColorMatrix in="SourceAlpha" type="matrix" values="0 0 0 0 0 0 0 0 0 0 0 0 0 0 0 0 0 0 127 0" result="hardAlpha"/>
<feOffset/>
<feGaussianBlur stdDeviation="2"/>
<feComposite in2="hardAlpha" operator="out"/>
<feColorMatrix type="matrix" values="0 0 0 0 0 0 0 0 0 0 0 0 0 0 0 0 0 0 0.25 0"/>
<feBlend mode="normal" in2="BackgroundImageFix" result="effect1_dropShadow_10_902"/>
<feBlend mode="normal" in="SourceGraphic" in2="effect1_dropShadow_10_902" result="shape"/>
</filter>
</defs>
</svg>
